<svg width="474" height="184" viewBox="0 0 474 184" fill="none" xmlns="http://www.w3.org/2000/svg">
    <rect x="0.000854492" y="0.819824" width="473.418" height="182.221" fill="#49FFE6" />
    <path
        d="M90.8589 109.991C99.5767 109.991 104.93 106.342 104.93 100.413C104.93 95.0922 100.443 91.9503 93.5609 91.5956V91.2915C99.5257 90.9368 103.4 88.2509 103.4 83.5887C103.4 78.0649 97.9963 74.5176 89.6353 74.5176H71.4349V109.991H90.8589ZM79.2351 78.7237H88.1059C92.5922 78.7237 95.4472 80.9028 95.4472 84.3995C95.4472 87.8962 92.5922 90.0753 88.1059 90.0753H79.2351V78.7237ZM79.2351 93.9267H89.4824C93.9687 93.9267 96.8237 96.2578 96.8237 99.8558C96.8237 103.403 93.9687 105.633 89.4824 105.633H79.2351V93.9267Z"
        fill="#0F1015" />
    <path
        d="M122.466 109.991V96.7646H130.113C134.447 96.7646 137.71 98.6396 138.729 103.099L140.208 109.991H149.18L147.498 102.694C146.071 96.9673 142.553 93.6226 135.364 93.6226H134.753V93.3692H136.333C143.012 93.3692 147.345 89.8726 147.345 84.6529C147.345 78.4703 141.329 74.5176 131.898 74.5176H114.564V109.991H122.466ZM122.466 79.1798H131.235C136.231 79.1798 139.443 81.815 139.443 85.8691C139.443 89.9232 136.282 92.5077 131.439 92.5077H122.466V79.1798Z"
        fill="#0F1015" />
    <path
        d="M199.518 109.991L183.153 74.5176H172.651L156.337 109.991H164.443L168.878 100.059H186.874L191.31 109.991H199.518ZM177.851 79.9906L184.733 95.295H171.019L177.851 79.9906Z"
        fill="#0F1015" />
    <path d="M215.044 109.991V74.5176H207.294V109.991H215.044Z" fill="#0F1015" />
    <path
        d="M255.539 101.63L234.688 74.5176H226.327V109.991H234.178L233.77 82.7272L254.622 109.991H262.982V74.5176H255.131L255.539 101.63Z"
        fill="#0F1015" />
    <path
        d="M308.903 74.5176H300.95V89.4672H282.138V74.5176H274.235V109.991H282.138V94.6362H300.95V109.991H308.903V74.5176Z"
        fill="#0F1015" />
    <path
        d="M338.455 110.954C350.283 110.954 357.267 104.315 357.267 93.0145V74.5176H349.569V92.9132C349.569 100.717 345.541 105.228 338.557 105.228C331.47 105.228 327.392 100.667 327.392 92.7611V74.5176H319.643V93.1665C319.643 104.366 326.576 110.954 338.455 110.954Z"
        fill="#0F1015" />
    <path
        d="M387.435 109.991C396.153 109.991 401.506 106.342 401.506 100.413C401.506 95.0922 397.02 91.9503 390.137 91.5956V91.2915C396.102 90.9368 399.977 88.2509 399.977 83.5887C399.977 78.0649 394.573 74.5176 386.212 74.5176H368.011V109.991H387.435ZM375.811 78.7237H384.682C389.169 78.7237 392.024 80.9028 392.024 84.3995C392.024 87.8962 389.169 90.0753 384.682 90.0753H375.811V78.7237ZM375.811 93.9267H386.059C390.545 93.9267 393.4 96.2578 393.4 99.8558C393.4 103.403 390.545 105.633 386.059 105.633H375.811V93.9267Z"
        fill="#0F1015" />
</svg>