<svg width="129" height="57" viewBox="0 0 129 57" fill="none" xmlns="http://www.w3.org/2000/svg">
    <rect x="2" y="2" width="125" height="53" rx="13" stroke="currentColor" stroke-width="4" />
    <mask id="path-2-outside-1_12_15" maskUnits="userSpaceOnUse" x="16" y="9.5" width="99" height="37"
        fill="currentColor">
        <rect fill="white" x="16" y="9.5" width="99" height="37" />
        <path
            d="M17.4452 44.5V11.572H22.0052V40.516H38.3732V44.5H17.4452ZM44.1876 44.5L57.1956 11.572H63.1956L76.2516 44.5H71.3076L68.0916 36.34H52.0596L48.8916 44.5H44.1876ZM53.5476 32.452H66.5556L62.5716 22.132C62.4756 21.844 62.3316 21.444 62.1396 20.932C61.9476 20.42 61.7396 19.86 61.5156 19.252C61.2916 18.612 61.0676 17.972 60.8436 17.332C60.6196 16.66 60.4116 16.052 60.2196 15.508H59.9316C59.7076 16.148 59.4516 16.884 59.1636 17.716C58.8756 18.548 58.5876 19.364 58.2996 20.164C58.0116 20.932 57.7716 21.588 57.5796 22.132L53.5476 32.452ZM98.9529 45.076C95.5929 45.076 92.7449 44.468 90.4089 43.252C88.0729 42.004 86.2809 40.132 85.0329 37.636C83.8169 35.108 83.2089 31.908 83.2089 28.036C83.2089 22.308 84.6009 18.036 87.3849 15.22C90.1689 12.404 94.0409 10.996 99.0009 10.996C101.817 10.996 104.313 11.46 106.489 12.388C108.665 13.284 110.361 14.66 111.577 16.516C112.825 18.34 113.449 20.644 113.449 23.428H108.841C108.841 21.508 108.425 19.924 107.593 18.676C106.793 17.428 105.657 16.5 104.185 15.892C102.713 15.252 100.985 14.932 99.0009 14.932C96.6969 14.932 94.7129 15.38 93.0489 16.276C91.3849 17.172 90.1209 18.564 89.2569 20.452C88.3929 22.308 87.9609 24.708 87.9609 27.652V28.66C87.9609 31.572 88.3929 33.956 89.2569 35.812C90.1209 37.636 91.3689 38.98 93.0009 39.844C94.6649 40.708 96.6649 41.14 99.0009 41.14C101.049 41.14 102.809 40.836 104.281 40.228C105.785 39.62 106.937 38.692 107.737 37.444C108.569 36.164 108.985 34.564 108.985 32.644H113.449C113.449 35.492 112.809 37.828 111.529 39.652C110.281 41.476 108.569 42.836 106.393 43.732C104.217 44.628 101.737 45.076 98.9529 45.076Z" />
    </mask>
    <path
        d="M17.4452 44.5V11.572H22.0052V40.516H38.3732V44.5H17.4452ZM44.1876 44.5L57.1956 11.572H63.1956L76.2516 44.5H71.3076L68.0916 36.34H52.0596L48.8916 44.5H44.1876ZM53.5476 32.452H66.5556L62.5716 22.132C62.4756 21.844 62.3316 21.444 62.1396 20.932C61.9476 20.42 61.7396 19.86 61.5156 19.252C61.2916 18.612 61.0676 17.972 60.8436 17.332C60.6196 16.66 60.4116 16.052 60.2196 15.508H59.9316C59.7076 16.148 59.4516 16.884 59.1636 17.716C58.8756 18.548 58.5876 19.364 58.2996 20.164C58.0116 20.932 57.7716 21.588 57.5796 22.132L53.5476 32.452ZM98.9529 45.076C95.5929 45.076 92.7449 44.468 90.4089 43.252C88.0729 42.004 86.2809 40.132 85.0329 37.636C83.8169 35.108 83.2089 31.908 83.2089 28.036C83.2089 22.308 84.6009 18.036 87.3849 15.22C90.1689 12.404 94.0409 10.996 99.0009 10.996C101.817 10.996 104.313 11.46 106.489 12.388C108.665 13.284 110.361 14.66 111.577 16.516C112.825 18.34 113.449 20.644 113.449 23.428H108.841C108.841 21.508 108.425 19.924 107.593 18.676C106.793 17.428 105.657 16.5 104.185 15.892C102.713 15.252 100.985 14.932 99.0009 14.932C96.6969 14.932 94.7129 15.38 93.0489 16.276C91.3849 17.172 90.1209 18.564 89.2569 20.452C88.3929 22.308 87.9609 24.708 87.9609 27.652V28.66C87.9609 31.572 88.3929 33.956 89.2569 35.812C90.1209 37.636 91.3689 38.98 93.0009 39.844C94.6649 40.708 96.6649 41.14 99.0009 41.14C101.049 41.14 102.809 40.836 104.281 40.228C105.785 39.62 106.937 38.692 107.737 37.444C108.569 36.164 108.985 34.564 108.985 32.644H113.449C113.449 35.492 112.809 37.828 111.529 39.652C110.281 41.476 108.569 42.836 106.393 43.732C104.217 44.628 101.737 45.076 98.9529 45.076Z"
        fill="currentColor" />
    <path
        d="M17.4452 44.5H16.4452V45.5H17.4452V44.5ZM17.4452 11.572V10.572H16.4452V11.572H17.4452ZM22.0052 11.572H23.0052V10.572H22.0052V11.572ZM22.0052 40.516H21.0052V41.516H22.0052V40.516ZM38.3732 40.516H39.3732V39.516H38.3732V40.516ZM38.3732 44.5V45.5H39.3732V44.5H38.3732ZM18.4452 44.5V11.572H16.4452V44.5H18.4452ZM17.4452 12.572H22.0052V10.572H17.4452V12.572ZM21.0052 11.572V40.516H23.0052V11.572H21.0052ZM22.0052 41.516H38.3732V39.516H22.0052V41.516ZM37.3732 40.516V44.5H39.3732V40.516H37.3732ZM38.3732 43.5H17.4452V45.5H38.3732V43.5ZM44.1876 44.5L43.2575 44.1326L42.7173 45.5H44.1876V44.5ZM57.1956 11.572V10.572H56.5154L56.2655 11.2046L57.1956 11.572ZM63.1956 11.572L64.1252 11.2034L63.8748 10.572H63.1956V11.572ZM76.2516 44.5V45.5H77.7238L77.1812 44.1314L76.2516 44.5ZM71.3076 44.5L70.3772 44.8667L70.6268 45.5H71.3076V44.5ZM68.0916 36.34L69.0219 35.9733L68.7723 35.34H68.0916V36.34ZM52.0596 36.34V35.34H51.3751L51.1274 35.9781L52.0596 36.34ZM48.8916 44.5V45.5H49.576L49.8238 44.8619L48.8916 44.5ZM53.5476 32.452L52.6161 32.0881L52.0833 33.452H53.5476V32.452ZM66.5556 32.452V33.452H68.0135L67.4885 32.0919L66.5556 32.452ZM62.5716 22.132L61.6229 22.4482L61.6303 22.4704L61.6387 22.4921L62.5716 22.132ZM62.1396 20.932L61.2032 21.2831L61.2032 21.2831L62.1396 20.932ZM61.5156 19.252L60.5717 19.5823L60.5744 19.59L60.5772 19.5977L61.5156 19.252ZM60.8436 17.332L59.8949 17.6482L59.8972 17.6553L59.8997 17.6623L60.8436 17.332ZM60.2196 15.508L61.1626 15.1752L60.9271 14.508H60.2196V15.508ZM59.9316 15.508V14.508H59.2221L58.9877 15.1776L59.9316 15.508ZM58.2996 20.164L59.236 20.5152L59.2405 20.5027L58.2996 20.164ZM57.5796 22.132L58.511 22.4959L58.517 22.4805L58.5226 22.4648L57.5796 22.132ZM45.1176 44.8674L58.1256 11.9394L56.2655 11.2046L43.2575 44.1326L45.1176 44.8674ZM57.1956 12.572H63.1956V10.572H57.1956V12.572ZM62.266 11.9406L75.322 44.8686L77.1812 44.1314L64.1252 11.2034L62.266 11.9406ZM76.2516 43.5H71.3076V45.5H76.2516V43.5ZM72.2379 44.1333L69.0219 35.9733L67.1612 36.7067L70.3772 44.8667L72.2379 44.1333ZM68.0916 35.34H52.0596V37.34H68.0916V35.34ZM51.1274 35.9781L47.9594 44.1381L49.8238 44.8619L52.9918 36.7019L51.1274 35.9781ZM48.8916 43.5H44.1876V45.5H48.8916V43.5ZM53.5476 33.452H66.5556V31.452H53.5476V33.452ZM67.4885 32.0919L63.5045 21.7719L61.6387 22.4921L65.6227 32.8121L67.4885 32.0919ZM63.5202 21.8158C63.4184 21.5103 63.2694 21.0969 63.0759 20.5809L61.2032 21.2831C61.3937 21.7911 61.5327 22.1777 61.6229 22.4482L63.5202 21.8158ZM63.0759 20.5809C62.8847 20.071 62.6774 19.5128 62.4539 18.9063L60.5772 19.5977C60.8018 20.2072 61.0104 20.769 61.2032 21.2831L63.0759 20.5809ZM62.4594 18.9216C62.2354 18.2816 62.0114 17.6416 61.7874 17.0016L59.8997 17.6623C60.1237 18.3024 60.3477 18.9424 60.5717 19.5823L62.4594 18.9216ZM61.7922 17.0158C61.5668 16.3394 61.3569 15.7258 61.1626 15.1752L59.2766 15.8408C59.4662 16.3782 59.6723 16.9806 59.8949 17.6482L61.7922 17.0158ZM60.2196 14.508H59.9316V16.508H60.2196V14.508ZM58.9877 15.1776C58.7632 15.819 58.5068 16.5561 58.2186 17.3889L60.1085 18.0431C60.3963 17.2119 60.6519 16.477 60.8754 15.8383L58.9877 15.1776ZM58.2186 17.3889C57.9319 18.2171 57.6452 19.0293 57.3587 19.8253L59.2405 20.5027C59.5299 19.6987 59.8193 18.8789 60.1085 18.0431L58.2186 17.3889ZM57.3632 19.8129C57.0738 20.5847 56.8314 21.2471 56.6366 21.7992L58.5226 22.4648C58.7117 21.9289 58.9493 21.2793 59.2359 20.5151L57.3632 19.8129ZM56.6481 21.7681L52.6161 32.0881L54.479 32.8159L58.511 22.4959L56.6481 21.7681ZM90.4089 43.252L89.9377 44.1341L89.9472 44.139L90.4089 43.252ZM85.0329 37.636L84.1318 38.0695L84.1351 38.0764L84.1385 38.0832L85.0329 37.636ZM87.3849 15.22L88.0961 15.9231L88.0961 15.9231L87.3849 15.22ZM106.489 12.388L106.097 13.3079L106.108 13.3127L106.489 12.388ZM111.577 16.516L110.74 17.064L110.746 17.0724L110.752 17.0807L111.577 16.516ZM113.449 23.428V24.428H114.449V23.428H113.449ZM108.841 23.428H107.841V24.428H108.841V23.428ZM107.593 18.676L106.751 19.2157L106.756 19.2232L106.761 19.2307L107.593 18.676ZM104.185 15.892L103.786 16.8091L103.795 16.8127L103.803 16.8163L104.185 15.892ZM93.0489 16.276L93.523 17.1565L93.523 17.1565L93.0489 16.276ZM89.2569 20.452L90.1635 20.874L90.1662 20.8681L89.2569 20.452ZM89.2569 35.812L88.3503 36.234L88.3532 36.2401L89.2569 35.812ZM93.0009 39.844L92.533 40.7278L92.5401 40.7315L93.0009 39.844ZM104.281 40.228L103.906 39.3009L103.899 39.3037L104.281 40.228ZM107.737 37.444L106.898 36.899L106.895 36.9043L107.737 37.444ZM108.985 32.644V31.644H107.985V32.644H108.985ZM113.449 32.644H114.449V31.644H113.449V32.644ZM111.529 39.652L110.71 39.0775L110.704 39.0873L111.529 39.652ZM106.393 43.732L106.774 44.6567L106.393 43.732ZM98.9529 44.076C95.7105 44.076 93.0302 43.4891 90.8707 42.365L89.9472 44.139C92.4597 45.4469 95.4753 46.076 98.9529 46.076V44.076ZM90.8802 42.37C88.737 41.225 87.088 39.5101 85.9274 37.1888L84.1385 38.0832C85.4739 40.7539 87.4089 42.783 89.9377 44.134L90.8802 42.37ZM85.9341 37.2025C84.803 34.851 84.2089 31.8117 84.2089 28.036H82.2089C82.2089 32.0043 82.8309 35.3649 84.1318 38.0695L85.9341 37.2025ZM84.2089 28.036C84.2089 22.4536 85.566 18.4822 88.0961 15.9231L86.6738 14.5169C83.6359 17.5898 82.2089 22.1624 82.2089 28.036H84.2089ZM88.0961 15.9231C90.6474 13.3424 94.2368 11.996 99.0009 11.996V9.996C93.8451 9.996 89.6905 11.4656 86.6738 14.5169L88.0961 15.9231ZM99.0009 11.996C101.707 11.996 104.066 12.4418 106.097 13.3078L106.881 11.4682C104.56 10.4782 101.927 9.996 99.0009 9.996V11.996ZM106.108 13.3127C108.11 14.1368 109.642 15.3871 110.74 17.064L112.413 15.968C111.08 13.9329 109.22 12.4312 106.87 11.4633L106.108 13.3127ZM110.752 17.0807C111.859 18.6998 112.449 20.7931 112.449 23.428H114.449C114.449 20.4949 113.79 17.9802 112.402 15.9513L110.752 17.0807ZM113.449 22.428H108.841V24.428H113.449V22.428ZM109.841 23.428C109.841 21.3655 109.393 19.574 108.425 18.1213L106.761 19.2307C107.456 20.274 107.841 21.6505 107.841 23.428H109.841ZM108.435 18.1363C107.516 16.7031 106.213 15.6477 104.567 14.9677L103.803 16.8163C105.101 17.3523 106.07 18.1529 106.751 19.2157L108.435 18.1363ZM104.584 14.9749C102.96 14.2689 101.091 13.932 99.0009 13.932V15.932C100.879 15.932 102.466 16.2351 103.786 16.8091L104.584 14.9749ZM99.0009 13.932C96.5674 13.932 94.4132 14.4056 92.5748 15.3955L93.523 17.1565C95.0127 16.3544 96.8265 15.932 99.0009 15.932V13.932ZM92.5748 15.3955C90.7 16.4051 89.2928 17.9705 88.3476 20.0359L90.1662 20.8681C90.9491 19.1575 92.0699 17.9389 93.523 17.1565L92.5748 15.3955ZM88.3504 20.03C87.404 22.0629 86.9609 24.6213 86.9609 27.652H88.9609C88.9609 24.7947 89.3819 22.5531 90.1635 20.874L88.3504 20.03ZM86.9609 27.652V28.66H88.9609V27.652H86.9609ZM86.9609 28.66C86.9609 31.6605 87.4045 34.2023 88.3504 36.234L90.1635 35.39C89.3813 33.7097 88.9609 31.4835 88.9609 28.66H86.9609ZM88.3532 36.2401C89.3005 38.2399 90.6925 39.7534 92.5331 40.7278L93.4688 38.9602C92.0454 38.2066 90.9414 37.0321 90.1607 35.3839L88.3532 36.2401ZM92.5401 40.7315C94.3773 41.6854 96.5432 42.14 99.0009 42.14V40.14C96.7867 40.14 94.9526 39.7306 93.4618 38.9565L92.5401 40.7315ZM99.0009 42.14C101.144 42.14 103.04 41.8223 104.663 41.1523L103.899 39.3037C102.577 39.8497 100.954 40.14 99.0009 40.14V42.14ZM104.656 41.1551C106.333 40.4772 107.656 39.4226 108.579 37.9837L106.895 36.9043C106.217 37.9614 105.237 38.7628 103.906 39.3009L104.656 41.1551ZM108.575 37.989C109.537 36.5096 109.985 34.7078 109.985 32.644H107.985C107.985 34.4202 107.601 35.8184 106.898 36.899L108.575 37.989ZM108.985 33.644H113.449V31.644H108.985V33.644ZM112.449 32.644C112.449 35.3436 111.843 37.4633 110.71 39.0776L112.347 40.2264C113.775 38.1927 114.449 35.6404 114.449 32.644H112.449ZM110.704 39.0873C109.573 40.74 108.02 41.9804 106.012 42.8073L106.774 44.6567C109.118 43.6916 110.989 42.212 112.354 40.2167L110.704 39.0873ZM106.012 42.8073C103.977 43.6454 101.63 44.076 98.9529 44.076V46.076C101.844 46.076 104.457 45.6106 106.774 44.6567L106.012 42.8073Z"
        fill="currentColor" mask="url(#path-2-outside-1_12_15)" />
</svg>